<svg width="1480" height="254" viewBox="0 0 1480 254" fill="none" xmlns="http://www.w3.org/2000/svg">
<g clip-path="url(#clip0_1_3124)">
<path d="M134.475 59.1558V101.219H51.9222V251.445H0V59.1558H134.475Z" fill="white"/>
<path d="M375.178 251.445V59.1558H457.731C471.925 59.1558 484.344 61.9726 494.991 67.606C505.636 73.2395 513.917 81.1575 519.832 91.3604C525.745 101.563 528.702 113.487 528.702 127.132C528.702 140.904 525.653 152.827 519.552 162.905C513.513 172.984 505.014 180.745 494.057 186.191C483.161 191.636 470.43 194.359 455.863 194.359H406.555V153.799H445.403C451.504 153.799 456.703 152.734 460.998 150.606C465.356 148.414 468.687 145.317 470.991 141.311C473.356 137.304 474.539 132.579 474.539 127.132C474.539 121.625 473.356 116.93 470.991 113.049C468.687 109.106 465.356 106.101 460.998 104.036C456.703 101.908 451.504 100.843 445.403 100.843H427.099V251.445H375.178Z" fill="white"/>
<path d="M558.27 251.445V59.1558H692.744V101.219H610.191V123.753H629.615C645.677 123.753 659.717 126.351 671.732 131.545C683.81 136.741 693.18 144.065 699.841 153.516C706.565 162.968 709.927 174.079 709.927 186.848C709.927 199.617 706.565 210.852 699.841 220.555C693.18 230.257 683.81 237.83 671.732 243.276C659.717 248.722 645.677 251.445 629.615 251.445H558.27ZM610.191 210.508H629.615C635.841 210.508 641.071 209.476 645.305 207.409C649.6 205.344 652.837 202.496 655.017 198.866C657.257 195.236 658.378 191.104 658.378 186.472C658.378 179.9 655.918 174.454 651 170.135C646.082 165.753 638.954 163.563 629.615 163.563H610.191V210.508Z" fill="white"/>
<path d="M738.801 59.1558H790.722V159.807H792.217L860.201 59.1558H904.279V251.445H852.357V150.418H851.236L782.131 251.445H738.801V59.1558Z" fill="white"/>
<path d="M933.006 251.445V211.259L938.235 210.508C944.586 209.506 949.847 206.752 954.018 202.246C958.252 197.677 961.489 190.447 963.73 180.557C966.033 170.604 967.496 157.053 968.119 139.903L971.107 59.1558H1109.69V251.445H1059.64V99.7167H1018.92L1015.93 160.183C1014.81 182.591 1011.82 200.462 1006.97 213.794C1002.11 227.128 994.734 236.735 984.835 242.619C974.936 248.503 961.893 251.445 945.707 251.445H933.006Z" fill="white"/>
<path d="M1144.79 251.445V59.1558H1282.63V101.219H1196.72V134.269H1275.53V176.332H1196.72V209.382H1282.25V251.445H1144.79Z" fill="white"/>
<path d="M1313.67 101.219V59.1558H1479.89V101.219H1422.37V251.445H1371.19V101.219H1313.67Z" fill="white"/>
<path fill-rule="evenodd" clip-rule="evenodd" d="M310.147 65.4815C326.249 86.4885 344.495 110.295 347.505 148.281C347.505 148.281 348.067 155.697 348.067 158.345C348.067 210.923 303.998 253.719 249.777 253.87H249.708C249.654 253.884 249.591 253.879 249.528 253.874L249.489 253.87C195.134 253.87 150.91 211.015 150.91 158.345C150.91 156.537 150.915 154.728 151.028 152.925C152.45 104.885 176.139 88.9715 182.334 85.5872C183.047 85.1971 183.989 85.636 184.241 86.4121C186.448 93.2415 196.467 120.491 215.194 125.612C215.936 125.816 216.645 125.242 216.651 124.472C216.781 110.546 217.549 90.2539 222.271 72.1335C229.102 46.0012 250.534 14.0421 276.832 0.925205C278.016 0.334922 279.379 1.21999 279.443 2.54516C280.582 26.1371 295.793 46.7573 310.133 65.4632L310.138 65.4693L310.147 65.4815ZM241.208 213.655C222.431 213.655 207.241 200.117 207.241 183.291C207.241 167.625 218.317 156.601 236.883 153.119C252.389 150.219 268.318 144.127 279.395 134.553C285.164 129.565 285.391 127.729 288.044 136.777C290.471 146.641 291.736 156.891 291.736 167.238C291.842 192.864 269.162 213.655 241.208 213.655Z" fill="white"/>
</g>
<defs>
<clipPath id="clip0_1_3124">
<rect width="1479.9" height="253.14" fill="white" transform="translate(0 0.739746)"/>
</clipPath>
</defs>
</svg>
