<svg width="1481" height="254" viewBox="0 0 1481 254" fill="none" xmlns="http://www.w3.org/2000/svg">
<g clip-path="url(#clip0_1_3134)">
<path d="M135.051 59.1558V101.219H52.4984V251.445H0.576172V59.1558H135.051Z" fill="#FF3D3D"/>
<path d="M375.754 251.445V59.1558H458.307C472.501 59.1558 484.921 61.9726 495.567 67.606C506.212 73.2395 514.493 81.1575 520.408 91.3604C526.321 101.563 529.279 113.487 529.279 127.132C529.279 140.904 526.229 152.827 520.128 162.905C514.089 172.984 505.59 180.745 494.634 186.191C483.738 191.636 471.006 194.359 456.439 194.359H407.131V153.799H445.98C452.081 153.799 457.28 152.734 461.574 150.606C465.933 148.414 469.264 145.317 471.567 141.311C473.932 137.304 475.115 132.579 475.115 127.132C475.115 121.625 473.932 116.93 471.567 113.049C469.264 109.106 465.933 106.101 461.574 104.036C457.28 101.908 452.081 100.843 445.98 100.843H427.676V251.445H375.754Z" fill="#FF3D3D"/>
<path d="M558.85 251.445V59.1558H693.324V101.219H610.771V123.753H630.195C646.257 123.753 660.297 126.351 672.312 131.545C684.39 136.741 693.76 144.065 700.421 153.516C707.145 162.968 710.507 174.079 710.507 186.848C710.507 199.617 707.145 210.852 700.421 220.555C693.76 230.257 684.39 237.83 672.312 243.276C660.297 248.722 646.257 251.445 630.195 251.445H558.85ZM610.771 210.508H630.195C636.421 210.508 641.651 209.476 645.885 207.409C650.18 205.344 653.417 202.496 655.597 198.866C657.837 195.236 658.958 191.104 658.958 186.472C658.958 179.9 656.498 174.454 651.58 170.135C646.662 165.753 639.534 163.563 630.195 163.563H610.771V210.508Z" fill="#FF3D3D"/>
<path d="M739.377 59.1558H791.299V159.807H792.793L860.777 59.1558H904.855V251.445H852.933V150.418H851.813L782.708 251.445H739.377V59.1558Z" fill="#FF3D3D"/>
<path d="M933.582 251.445V211.259L938.812 210.508C945.162 209.506 950.423 206.752 954.594 202.246C958.828 197.677 962.065 190.447 964.306 180.557C966.61 170.604 968.072 157.053 968.695 139.903L971.683 59.1558H1110.27V251.445H1060.21V99.7167H1019.5L1016.51 160.183C1015.39 182.591 1012.4 200.462 1007.54 213.794C1002.69 227.128 995.31 236.735 985.411 242.619C975.512 248.503 962.469 251.445 946.283 251.445H933.582Z" fill="#FF3D3D"/>
<path d="M1145.37 251.445V59.1558H1283.2V101.219H1197.29V134.269H1276.11V176.332H1197.29V209.382H1282.82V251.445H1145.37Z" fill="#FF3D3D"/>
<path d="M1314.25 101.219V59.1558H1480.47V101.219H1422.94V251.445H1371.77V101.219H1314.25Z" fill="#FF3D3D"/>
<path fill-rule="evenodd" clip-rule="evenodd" d="M310.724 65.4815C326.825 86.4885 345.072 110.295 348.081 148.281C348.081 148.281 348.644 155.697 348.644 158.345C348.644 210.923 304.574 253.719 250.353 253.87H250.284C250.23 253.884 250.167 253.879 250.104 253.874L250.065 253.87C195.71 253.87 151.486 211.015 151.486 158.345C151.486 156.537 151.491 154.728 151.604 152.925C153.026 104.885 176.715 88.9715 182.91 85.5872C183.623 85.1971 184.565 85.636 184.817 86.412C187.025 93.2415 197.043 120.491 215.771 125.612C216.512 125.816 217.221 125.242 217.227 124.472C217.358 110.546 218.125 90.2539 222.848 72.1335C229.679 46.0012 251.11 14.0421 277.408 0.925205C278.592 0.334922 279.955 1.21999 280.019 2.54516C281.159 26.1371 296.369 46.7573 310.709 65.4632L310.714 65.4693L310.724 65.4815ZM241.784 213.655C223.007 213.655 207.817 200.117 207.817 183.291C207.817 167.625 218.893 156.601 237.459 153.119C252.965 150.219 268.895 144.127 279.971 134.553C285.741 129.565 285.967 127.729 288.62 136.777C291.047 146.641 292.313 156.891 292.313 167.238C292.418 192.864 269.738 213.655 241.784 213.655Z" fill="#FF3D3D"/>
</g>
<defs>
<clipPath id="clip0_1_3134">
<rect width="1479.9" height="253.14" fill="white" transform="translate(0.576172 0.739746)"/>
</clipPath>
</defs>
</svg>
